<?xml version="1.0" encoding="UTF-8" standalone="no"?>
<!-- Generator: Adobe Illustrator 27.9.0, SVG Export Plug-In . SVG Version: 6.00 Build 0)  -->

<svg
   version="1.1"
   id="Layer_1"
   x="0px"
   y="0px"
   viewBox="0 0 2048 2048"
   xml:space="preserve"
   sodipodi:docname="novelnest.svg"
   width="2048"
   height="2048"
   inkscape:export-filename="C:\Users\VIRUSILVESTER\3D Objects\NovelNest\assets\images\splash-icon.png"
   inkscape:export-xdpi="48"
   inkscape:export-ydpi="48"
   inkscape:version="1.4.2 (f4327f4, 2025-05-13)"
   xmlns:inkscape="http://www.inkscape.org/namespaces/inkscape"
   xmlns:sodipodi="http://sodipodi.sourceforge.net/DTD/sodipodi-0.dtd"
   xmlns="http://www.w3.org/2000/svg"
   xmlns:svg="http://www.w3.org/2000/svg"><defs
   id="defs29" /><sodipodi:namedview
   id="namedview29"
   pagecolor="#ffffff"
   bordercolor="#000000"
   borderopacity="0.25"
   inkscape:showpageshadow="2"
   inkscape:pageopacity="0.0"
   inkscape:pagecheckerboard="0"
   inkscape:deskcolor="#d1d1d1"
   inkscape:zoom="0.35355339"
   inkscape:cx="1013.9911"
   inkscape:cy="1005.5058"
   inkscape:window-width="1920"
   inkscape:window-height="1017"
   inkscape:window-x="-8"
   inkscape:window-y="-8"
   inkscape:window-maximized="1"
   inkscape:current-layer="Layer_1" />
<style
   type="text/css"
   id="style1">
	.st0{fill:#00566D;}
	.st1{fill:#FFFFFF;}
	.st2{fill:#00708E;}
	.st3{fill:#EC8000;}
	.st4{fill:#71420E;}
	.st5{fill:#5493A2;}
	.st6{fill:#96632D;}
	.st7{fill:#363634;}
</style>
<path
   class="st0"
   d="m 390.96148,301.72135 c 214.13552,10.44565 476.43693,31.91722 628.47892,200.208 2.3212,2.32124 4.0621,4.64251 6.3834,6.96377 153.783,-171.19238 392.2916,-194.98521 611.0696,-206.59144 8.1244,-0.58033 15.6685,-0.58033 23.7929,-0.58033 -7.544,55.71006 -73.1194,619.77434 -67.8967,628.47903 26.1142,-11.60625 53.3889,-22.0519 79.503,-33.07784 30.7567,-14.50783 57.4511,-27.85503 87.0469,-44.68409 4.0622,-19.73067 5.2228,-44.1038 13.3473,-62.67382 -1.1607,-6.38344 4.0621,-38.88097 5.2228,-47.00536 29.0156,6.96375 91.1092,20.89126 115.4823,32.49753 2.9017,80.08318 2.9017,134.63263 66.1558,197.88669 24.3732,-12.18651 49.9068,-22.63213 68.4769,8.12449 4.6424,37.13992 -63.8345,60.93282 -92.2699,76.02092 -16.2487,96.332 -53.3889,185.1199 -103.2957,268.685 -31.9172,52.8085 -92.8501,80.0833 -147.3995,103.876 -162.4876,70.7981 -341.8043,92.85 -516.4787,63.2541 -1.7408,0 -3.4817,-0.5804 -5.2227,-1.1607 -39.4615,16.2488 -55.1298,22.0519 -97.4928,29.0157 146.239,45.8449 312.7888,40.622 462.5097,12.7669 70.7982,-17.4094 119.5446,-35.3992 185.7002,-61.5131 -141.5965,134.0522 -319.1723,222.8402 -511.2558,255.9178 -253.59674,42.9433 -522.86207,-9.2849 -736.99755,-155.5238 -174.67423,-119.5445 -310.46747,-302.9234 -346.44689,-514.7376 -19.15031,-9.285 -106.777601,-44.1037 -91.689454,-74.86033 16.248755,-32.49751 40.621901,-22.05189 67.316312,-9.28506 49.326612,-46.425 62.093482,-100.97444 66.155682,-165.38916 -5.80312,-39.46131 23.79283,-42.94317 55.12973,-49.90693 17.4094,-4.0622 34.81878,-8.12439 52.80849,-12.76688 l 6.96376,3.48187 c 5.22282,16.82909 6.38345,19.73063 6.96375,37.72034 l -2.90157,4.6425 c 9.28503,13.34723 9.86534,37.14005 9.86534,52.80849 26.6944,13.34721 64.41475,30.75662 89.94852,45.26443 l 81.82414,33.65816 C 439.12745,715.48455 415.91493,508.89312 390.96148,301.72135 Z"
   id="path1"
   style="stroke-width:5.80313" />
<path
   class="st1"
   d="m 390.96148,301.72135 c 214.13552,10.44565 476.43693,31.91722 628.47892,200.208 2.3212,2.32124 4.0621,4.64251 6.3834,6.96377 153.783,-171.19238 392.2916,-194.98521 611.0696,-206.59144 8.1244,-0.58033 15.6685,-0.58033 23.7929,-0.58033 -7.544,55.71006 -73.1194,619.77434 -67.8967,628.47903 -23.7928,7.54408 -48.1658,20.31098 -71.9586,29.59594 -22.6323,5.80319 -42.9432,15.66848 -64.4147,24.95344 C 1281.7421,1057.8692 1120.9952,1159.424 1033.9482,1332.9375 928.91184,1125.1856 740.30992,1028.8536 529.07596,950.51136 L 461.17935,922.076 C 439.12745,715.48455 415.91493,508.89312 390.96148,301.72135 Z"
   id="path2"
   style="stroke-width:5.80313" />
<path
   class="st2"
   d="m 390.96148,301.72135 c 214.13552,10.44565 476.43693,31.91722 628.47892,200.208 2.3212,2.32124 4.0621,4.64251 6.3834,6.96377 153.783,-171.19238 392.2916,-194.98521 611.0696,-206.59144 8.1244,-0.58033 15.6685,-0.58033 23.7929,-0.58033 -7.544,55.71006 -73.1194,619.77434 -67.8967,628.47903 -23.7928,7.54408 -48.1658,20.31098 -71.9586,29.59594 13.9275,-107.9382 26.6943,-215.87643 37.7202,-324.39496 9.2851,-85.88634 21.4717,-178.15612 27.8551,-264.04246 -44.6843,2.32128 -88.788,6.38345 -132.8916,12.1866 -143.3374,19.73064 -303.5038,62.6738 -395.1932,183.37891 v 169.4514 c -22.052,14.50785 -44.104,29.01567 -65.57558,44.10381 2.32141,-66.736 0.58042,-147.3995 -0.58023,-214.71583 -4.64243,-5.80314 -9.28506,-12.18658 -13.92749,-17.40941 C 855.79223,409.65957 637.59458,381.22424 464.08093,370.19829 c 20.89125,193.24423 42.36287,386.4885 64.99503,579.73274 L 461.17935,921.49569 C 439.12745,715.48455 415.91493,508.89312 390.96148,301.72135 Z"
   id="path3"
   style="stroke-width:5.80313" />
<path
   class="st3"
   d="m 1250.9856,590.71725 c 67.316,-3.48189 107.3578,12.18658 144.4978,70.21787 33.6581,4.64251 56.2904,10.44564 88.7879,19.73067 -13.9277,6.96372 -30.7566,15.08813 -44.1039,22.63219 -87.0468,50.48723 -48.7464,105.61697 -42.3628,184.53953 2.3212,31.91724 -1.741,54.54945 -9.8654,84.72574 -145.6585,67.31635 -261.7211,146.81915 -351.6697,281.45175 -50.48723,-67.8966 -69.63738,-96.3319 -135.79325,-149.7208 77.76195,-0.5803 139.85535,-4.0622 210.65375,-36.5597 86.4666,-48.1659 118.9642,-99.23345 97.4925,-197.88667 -20.311,175.83477 -180.4774,198.46697 -326.13594,196.72607 -51.06743,-0.5804 -77.18162,-35.3991 -123.02629,-55.71 70.7981,-47.5857 139.27519,-110.83979 209.49306,-161.32704 16.82894,-11.60625 110.83967,-79.50289 116.06247,-88.78788 50.4872,-80.66352 52.8085,-149.14045 165.9698,-170.03173 z"
   id="path4"
   style="stroke-width:5.80313" />
<path
   class="st1"
   d="m 1291.6073,659.19419 c 8.7047,-4.0622 18.57,-2.90157 26.1141,2.90158 7.5441,5.8031 11.0259,15.08811 9.2849,24.37313 -1.7408,9.28502 -8.1244,16.82908 -17.4093,19.73063 -12.7669,4.06219 -26.6944,-2.32124 -31.9174,-15.08814 -4.6424,-12.18656 1.1609,-26.11407 13.9277,-31.9172 z"
   id="path5"
   style="stroke-width:5.80313" />
<path
   class="st1"
   d="m 159.41657,808.33465 c -5.80315,-39.46131 23.79282,-42.94317 55.12974,-49.90693 17.40938,-4.0622 34.81877,-8.12439 52.80848,-12.76688 l 6.96376,3.48187 c 5.22282,16.82909 6.38344,19.73063 6.96375,37.72034 l -2.90156,4.6425 c 9.28499,13.34723 9.86532,37.14005 9.86532,52.80849 26.69439,13.34721 64.41474,30.75662 89.94851,45.26443 l 81.82415,33.65816 67.89665,28.43529 C 739.14936,1029.4339 927.751,1126.3461 1032.7875,1334.0982 l -22.0518,66.1557 h 42.3628 c 169.4515,-381.2657 521.1212,-350.5091 795.0289,-549.55641 4.0623,19.15034 6.9639,33.65816 12.767,52.80849 5.8029,24.95347 14.5077,38.88098 27.2746,60.93287 7.5442,12.1866 17.9897,22.63222 27.855,33.07784 -183.3788,87.04691 -363.8562,186.86081 -546.6547,276.22901 -66.1558,32.4975 -136.9541,68.4769 -201.3686,104.4564 l -12.7671,38.3007 c -59.7722,56.2904 -199.04739,61.5131 -257.07857,-1.1608 -6.96374,-7.5441 -13.92749,-28.4354 -17.40936,-39.4612 -77.76204,-45.2645 -186.28052,-96.332 -268.10468,-137.5342 L 135.0434,996.35603 c 13.92753,-12.76683 17.4094,-15.66838 27.27472,-31.33685 12.76689,-23.21255 19.73066,-36.55973 29.01567,-60.93288 4.06219,-19.73065 7.54407,-38.88098 11.02593,-58.61164 -17.9897,-14.5078 -25.53375,-20.31095 -42.94315,-37.14001 z"
   id="path6"
   style="stroke-width:5.80313" />
<path
   class="st4"
   d="m 159.41657,808.33465 c -5.80315,-39.46131 23.79282,-42.94317 55.12974,-49.90693 17.40938,-4.0622 34.81877,-8.12439 52.80848,-12.76688 l 6.96376,3.48187 c 5.22282,16.82909 6.38344,19.73063 6.96375,37.72034 l -2.90156,4.6425 c 9.28499,13.34723 9.86532,37.14005 9.86532,52.80849 26.69439,13.34721 64.41474,30.75662 89.94851,45.26443 l 81.82415,33.65816 67.89665,28.43529 C 739.14936,1029.4339 927.751,1126.3461 1032.7875,1334.0982 l -22.0518,66.1557 c -15.08814,-32.4975 -27.85507,-65.5754 -46.4249,-95.7517 C 791.95777,1029.4339 429.26213,1010.8639 202.94004,845.47466 184.37002,830.96686 176.82597,825.16371 159.41657,808.33465 Z"
   id="path7"
   style="stroke-width:5.80313" />
<path
   class="st1"
   d="m 278.96104,790.92525 c 9.28502,13.3472 9.86532,37.14003 9.86532,52.8085 -25.53374,-13.92753 -37.14002,-22.63221 -59.77223,-40.62192 z"
   id="path8"
   style="stroke-width:5.80313" />
<path
   class="st2"
   d="m 192.4944,902.92566 c 60.93288,29.01565 125.34761,62.67385 186.28049,93.43037 156.68451,78.92257 367.91845,176.99547 488.04319,305.24467 -1.16056,6.3834 0,4.6425 -3.48177,9.285 C 646.29917,1161.1649 400.82679,1075.2786 163.47874,963.85852 176.24565,940.646 182.62909,927.29881 192.4944,902.92566 Z"
   id="path9"
   style="stroke-width:5.80313" />
<path
   class="st2"
   d="m 1861.4748,902.34536 c 5.8028,24.95345 14.5077,38.88096 27.2745,60.93284 -67.3162,34.23849 -147.3994,68.477 -217.0369,99.2336 -185.7003,80.6634 -345.2863,153.2025 -511.8361,270.4257 123.6064,-145.0781 323.2343,-239.0889 493.266,-323.8145 69.0571,-35.39919 138.6948,-70.79823 208.3325,-106.77764 z"
   id="path10"
   style="stroke-width:5.80313" />
<path
   class="st5"
   d="m 866.23785,1301.6007 c 11.02604,11.6062 17.98969,20.3109 27.27475,33.0778 -4.64262,-3.4818 -28.43531,-20.8913 -30.75662,-23.7928 4.0621,-4.6425 2.32131,-2.9016 3.48187,-9.285 z"
   id="path11"
   style="stroke-width:5.80313" />
<path
   class="st2"
   d="m 117.63403,1057.2889 c 15.66844,8.1244 69.63756,34.2385 75.44069,45.8447 9.285,-1.7409 11.60625,-0.5803 20.89128,4.0622 102.7154,48.7463 203.68987,102.7155 305.24465,153.783 l 196.72616,99.8137 c 34.2384,17.4096 80.6634,38.3007 112.58077,58.0315 50.48711,99.2335 136.37355,105.617 236.18712,102.135 146.239,45.8449 312.789,40.622 462.5097,12.7669 70.7981,-17.4094 119.5445,-35.3992 185.7001,-61.5131 -141.5962,134.0522 -319.1721,222.8402 -511.2558,255.9178 C 948.062,1771.0739 678.79677,1718.8457 464.66122,1572.6068 289.987,1453.0623 154.19375,1269.6834 117.63403,1057.2889 Z"
   id="path12"
   style="stroke-width:5.80313" />
<path
   class="st4"
   d="m 117.63403,1057.2889 c 15.66844,8.1244 69.63756,34.2385 75.44069,45.8447 105.61696,329.0376 385.32785,530.9863 724.81099,568.1266 40.62181,12.1866 186.28049,2.3211 230.96449,-4.0623 105.0367,-7.5439 297.7006,-67.3163 377.7838,-133.472 70.7984,-17.4094 119.5445,-35.3992 185.7002,-61.5131 -141.5963,134.0522 -319.172,222.8402 -511.2558,255.9178 -253.59673,42.9433 -522.86196,-9.2849 -736.99747,-155.5238 C 289.987,1453.0623 154.19375,1269.6834 117.63403,1057.2889 Z"
   id="path13"
   style="stroke-width:5.80313" />
<path
   class="st0"
   d="m 552.28854,1401.9948 c 109.09877,94.5911 282.61246,183.9593 421.88746,227.4826 55.1296,16.8292 117.8035,27.8551 175.2545,38.3008 -44.684,6.3835 -189.76213,16.2489 -230.96446,4.0623 5.80318,-2.3213 3.48187,-0.5803 6.96365,-5.2229 -25.53367,-13.3472 -68.4769,-26.6945 -96.91211,-40.0416 -116.64297,-55.1297 -209.49315,-113.7413 -276.22904,-224.5812 z"
   id="path14"
   style="stroke-width:5.80313" />
<path
   class="st4"
   d="m 1860.8944,1096.1698 c 24.9536,-12.7668 49.9069,-25.5337 74.2801,-38.8809 -16.249,96.332 -53.3888,185.1199 -103.2958,268.685 -31.9172,52.8085 -92.85,80.0833 -147.3995,103.876 -162.4877,70.7981 -341.8043,92.85 -516.4785,63.2541 -1.741,0 -3.4822,-0.5804 -5.2228,-1.1607 26.6941,-19.1501 41.2021,-29.5959 53.9689,-59.1919 11.6063,-23.7928 46.4251,-34.2385 71.3786,-44.1038 16.8291,-11.0258 52.2281,-28.4354 71.9587,-38.3006 48.1661,-24.9534 95.7518,-49.3266 144.498,-73.6997 z"
   id="path15"
   style="stroke-width:5.80313" />
<path
   class="st6"
   d="m 1286.9649,1388.6476 c 16.8289,-11.0258 52.2279,-28.4354 71.9588,-38.3006 48.1657,-24.9534 95.7515,-49.3266 144.4979,-73.6997 l 357.4728,-181.0577 c -10.4457,35.399 -31.9172,105.0366 -51.0676,136.3735 -14.5079,1.7409 -64.995,39.4613 -81.8243,48.7463 -135.7929,77.1817 -283.7728,116.6429 -441.0376,107.9382 z"
   id="path16"
   style="stroke-width:5.80313" />
<path
   class="st1"
   d="m 1286.9649,1388.6476 c 156.6843,8.7047 304.6644,-30.7565 441.0376,-107.9382 16.8293,-9.285 67.3164,-47.0054 81.8243,-48.7463 -11.0258,21.4716 -34.8187,64.9951 -50.4873,81.8241 -37.1401,39.4614 -129.9901,71.959 -180.4774,88.2076 -105.0366,33.6582 -253.5966,50.4874 -362.6956,31.3369 11.0261,-23.7928 45.8448,-34.2385 70.7984,-44.6841 z"
   id="path17"
   style="stroke-width:5.80313" />
<path
   class="st1"
   d="m 1758.7593,853.01876 c 4.0622,-19.73066 5.2227,-44.10381 13.3471,-62.67383 l 55.7102,13.92752 c -26.1141,22.05189 -38.3008,31.91722 -69.0573,48.74631 z"
   id="path18"
   style="stroke-width:5.80313" />









<path
   class="st6"
   d="m 1685.6397,427.6493 145.6586,4.64249 c -15.6684,95.75165 -33.0776,217.61737 -53.969,310.46748 -1.1606,8.12439 -6.3834,40.62192 -5.2229,47.00536 -8.1244,18.57002 -9.2849,42.94315 -13.3471,62.67382 -29.5961,16.82906 -56.2903,30.17626 -87.0469,44.68409 23.7928,-121.86574 43.5235,-277.38965 63.2541,-402.15694 -17.4095,-1.74095 -40.6219,-1.74095 -58.0315,-1.74095 2.3214,-19.73064 5.8033,-45.26442 8.7047,-65.57535 z"
   id="path28"
   style="stroke-width:5.80313" />
<path
   class="st6"
   d="m 219.76912,432.29179 148.56015,-4.06218 c 2.32124,20.89126 4.6425,45.2644 7.54407,65.57536 -18.57002,0.58031 -41.20223,0.58031 -59.19194,2.32125 21.47159,131.15075 42.36284,262.3015 62.09349,393.45225 -25.53376,-14.50781 -63.25411,-31.91722 -89.94853,-45.26443 0,-15.66844 -1.16063,-40.04159 -9.86532,-52.80849 l 2.90158,-4.6425 c -0.58032,-17.40939 -1.74096,-20.89125 -6.96378,-37.72034 l -6.96372,-3.48187 5.80311,-4.06221 c -2.32125,-20.89126 -6.96375,-45.84471 -11.02594,-66.73599 -16.24877,-80.0832 -27.27472,-162.48765 -42.94317,-242.57085 z"
   id="path29"
   style="stroke-width:5.80313" />
<circle
   class="st0"
   cx="946.90137"
   cy="1330.0361"
   r="113.16104"
   id="circle29"
   style="stroke-width:5.80313" />
</svg>
