<?xml version="1.0" encoding="UTF-8" standalone="no"?>
<!-- Generator: Adobe Illustrator 27.9.0, SVG Export Plug-In . SVG Version: 6.00 Build 0)  -->

<svg
   version="1.1"
   id="Layer_1"
   x="0px"
   y="0px"
   viewBox="0 0 2048 2048"
   xml:space="preserve"
   sodipodi:docname="novelnest.svg"
   width="2048"
   height="2048"
   inkscape:export-filename="C:\Users\VIRUSILVESTER\3D Objects\NovelNest\assets\images\android-icon-foreground.png"
   inkscape:export-xdpi="24"
   inkscape:export-ydpi="24"
   inkscape:version="1.4.2 (f4327f4, 2025-05-13)"
   xmlns:inkscape="http://www.inkscape.org/namespaces/inkscape"
   xmlns:sodipodi="http://sodipodi.sourceforge.net/DTD/sodipodi-0.dtd"
   xmlns="http://www.w3.org/2000/svg"
   xmlns:svg="http://www.w3.org/2000/svg"><defs
   id="defs29" /><sodipodi:namedview
   id="namedview29"
   pagecolor="#ffffff"
   bordercolor="#000000"
   borderopacity="0.25"
   inkscape:showpageshadow="2"
   inkscape:pageopacity="0.0"
   inkscape:pagecheckerboard="0"
   inkscape:deskcolor="#d1d1d1"
   inkscape:zoom="0.35355339"
   inkscape:cx="1013.9911"
   inkscape:cy="1005.5058"
   inkscape:window-width="1920"
   inkscape:window-height="1017"
   inkscape:window-x="-8"
   inkscape:window-y="-8"
   inkscape:window-maximized="1"
   inkscape:current-layer="Layer_1" />
<style
   type="text/css"
   id="style1">
	.st0{fill:#00566D;}
	.st1{fill:#FFFFFF;}
	.st2{fill:#00708E;}
	.st3{fill:#EC8000;}
	.st4{fill:#71420E;}
	.st5{fill:#5493A2;}
	.st6{fill:#96632D;}
	.st7{fill:#363634;}
</style>
<path
   class="st0"
   d="m 389.67989,304.54978 c 215.04297,10.4899 478.45599,32.05248 631.14221,201.05643 2.3311,2.33108 4.0794,4.66219 6.4104,6.9933 154.4348,-171.91787 393.9541,-195.81152 613.6592,-207.46694 8.1589,-0.58279 15.7349,-0.58279 23.8937,-0.58279 -7.5759,55.94614 -73.4293,622.4008 -68.1844,631.14237 26.2249,-11.65543 53.615,-22.14535 79.8399,-33.21802 30.887,-14.56929 57.6946,-27.97307 87.4157,-44.87345 4.0796,-19.81428 5.2451,-44.2907 13.404,-62.93942 -1.1656,-6.41048 4.0794,-39.04573 5.2449,-47.20455 29.1386,6.99327 91.4953,20.9798 115.9717,32.63525 2.9139,80.42256 2.9139,135.20317 66.4362,198.72534 24.4764,-12.2382 50.1182,-22.72811 68.767,8.15878 4.662,37.29752 -64.1049,61.19112 -92.6608,76.34312 -16.3177,96.7404 -53.6153,185.9044 -103.7336,269.8237 -32.0524,53.0324 -93.2435,80.4226 -148.0241,104.3164 -163.1763,71.098 -343.2528,93.2433 -518.6674,63.5221 -1.7482,0 -3.4965,-0.5829 -5.2449,-1.1656 -39.6286,16.3176 -55.3635,22.1453 -97.9058,29.1386 146.8587,46.0391 314.1143,40.794 464.4697,12.8209 71.0981,-17.4832 120.0511,-35.5491 186.4872,-61.7738 -142.1966,134.6204 -320.525,223.7845 -513.4224,257.0024 C 950.30681,1780.1292 679.90042,1727.6797 464.8575,1580.821 289.44303,1460.7699 153.07433,1276.614 116.94245,1063.9021 97.710982,1054.5777 9.7123588,1019.6114 24.864442,988.72447 41.182049,956.08919 65.658492,966.5791 92.466026,979.40007 142.00166,932.7783 154.82264,877.99769 158.90206,813.30998 c -5.82773,-39.62852 23.89366,-43.12515 55.36334,-50.11842 17.48319,-4.0794 34.96635,-8.15882 53.03228,-12.82098 l 6.99328,3.49662 c 5.24494,16.90041 6.4105,19.81426 6.99327,37.88019 l -2.91387,4.66218 c 9.32438,13.40379 9.90714,37.29744 9.90714,53.03228 26.80752,13.40377 64.68773,30.88695 90.32972,45.45625 l 82.17087,33.80079 c -22.72812,-208.63248 -46.039,-416.09938 -71.0982,-624.14911 z"
   id="path1"
   style="stroke-width:5.82772" />
<path
   class="st1"
   d="m 389.67989,304.54978 c 215.04297,10.4899 478.45599,32.05248 631.14221,201.05643 2.3311,2.33108 4.0794,4.66219 6.4104,6.9933 154.4348,-171.91787 393.9541,-195.81152 613.6592,-207.46694 8.1589,-0.58279 15.7349,-0.58279 23.8937,-0.58279 -7.5759,55.94614 -73.4293,622.4008 -68.1844,631.14237 -23.8936,7.57606 -48.3699,20.39704 -72.2636,29.72139 -22.7281,5.82772 -43.1251,15.73486 -64.6876,25.05922 -175.4144,73.42934 -336.8425,175.41444 -424.2584,349.66344 C 929.90991,1131.5036 740.50884,1034.7635 528.37966,956.08919 L 460.19532,927.53335 C 438.04997,720.06641 414.73909,512.59951 389.67989,304.54978 Z"
   id="path2"
   style="stroke-width:5.82772" />
<path
   class="st2"
   d="m 389.67989,304.54978 c 215.04297,10.4899 478.45599,32.05248 631.14221,201.05643 2.3311,2.33108 4.0794,4.66219 6.4104,6.9933 154.4348,-171.91787 393.9541,-195.81152 613.6592,-207.46694 8.1589,-0.58279 15.7349,-0.58279 23.8937,-0.58279 -7.5759,55.94614 -73.4293,622.4008 -68.1844,631.14237 -23.8936,7.57606 -48.3699,20.39704 -72.2636,29.72139 13.9866,-108.39565 26.8075,-216.79129 37.8802,-325.76971 9.3243,-86.2503 21.5626,-178.91109 27.9732,-265.16139 -44.8738,2.33112 -89.1644,6.4105 -133.455,12.23824 -143.9447,19.81425 -304.7898,62.9394 -396.8679,184.15602 v 170.16951 c -22.1455,14.56932 -44.2909,29.13862 -65.85338,44.29071 2.33133,-67.01882 0.58291,-148.02415 -0.5826,-215.62575 -4.66217,-5.82772 -9.32446,-12.23823 -13.98653,-17.48318 C 856.48053,412.94542 637.35817,384.38958 463.10919,373.31691 c 20.97978,194.06315 42.5424,388.12635 65.27047,582.18951 L 460.19532,926.95058 C 438.04997,720.06641 414.73909,512.59951 389.67989,304.54978 Z"
   id="path3"
   style="stroke-width:5.82772" />
<path
   class="st3"
   d="m 1253.3484,594.77038 c 67.6013,-3.49664 107.813,12.23821 145.1103,70.51543 33.8008,4.66219 56.5288,10.4899 89.1641,19.81428 -13.9866,6.99325 -30.887,15.15208 -44.2908,22.7281 -87.4157,50.70118 -48.953,106.06456 -42.5424,185.32158 2.3312,32.05248 -1.7483,54.7806 -9.907,85.08478 -146.2758,67.60155 -262.8303,147.44135 -353.1602,282.64455 -50.70095,-68.1843 -69.93236,-96.7402 -136.36847,-150.3553 78.09146,-0.5827 140.44787,-4.0794 211.54627,-36.7146 86.8331,-48.3701 119.4684,-99.65409 97.9058,-198.72535 -20.3972,176.58005 -181.2423,199.30815 -327.51809,197.55975 -51.28387,-0.5827 -77.50866,-35.5491 -123.54766,-55.946 71.09819,-47.78742 139.86539,-111.3096 210.38088,-162.0108 16.90032,-11.65543 111.30937,-79.8398 116.55427,-89.16414 50.7012,-81.00535 53.0322,-149.77248 166.673,-170.75228 z"
   id="path4"
   style="stroke-width:5.82772" />
<path
   class="st1"
   d="m 1294.1423,663.53751 c 8.7416,-4.07942 18.6488,-2.91386 26.2248,2.91387 7.5761,5.8277 11.0725,15.15206 9.3243,24.47642 -1.7482,9.32437 -8.1588,16.90039 -17.4831,19.81425 -12.821,4.07941 -26.8075,-2.33109 -32.0526,-15.15208 -4.6621,-12.2382 1.1657,-26.22473 13.9866,-32.05246 z"
   id="path5"
   style="stroke-width:5.82772" />
<path
   class="st1"
   d="m 157.15375,813.30998 c -5.82774,-39.62852 23.89365,-43.12515 55.36337,-50.11842 17.48315,-4.0794 34.96632,-8.15882 53.03226,-12.82098 l 6.99328,3.49662 c 5.24495,16.90041 6.41048,19.81426 6.99324,37.88019 l -2.91384,4.66218 c 9.32434,13.40379 9.90713,37.29744 9.90713,53.03228 26.80752,13.40377 64.68771,30.88695 90.32969,45.45625 l 82.1709,33.80079 68.18438,28.55585 c 212.12919,78.09156 401.53005,175.41436 507.01164,384.04696 l -22.1453,66.436 h 42.5424 c 170.1695,-382.8814 523.3295,-351.9944 798.398,-551.88535 4.0795,19.2315 6.9934,33.80079 12.821,53.03228 5.8276,25.05922 14.5693,39.04574 27.3902,61.19108 7.5762,12.23824 18.066,22.72814 27.9732,33.21799 -184.1561,87.416 -365.3982,187.6527 -548.9714,277.3997 -66.4362,32.6353 -137.5345,68.7671 -202.222,104.899 l -12.8213,38.4631 c -60.0252,56.5288 -199.89061,61.7738 -258.16776,-1.1657 -6.99327,-7.5761 -13.98654,-28.5559 -17.48313,-39.6284 -78.09155,-45.4564 -187.06997,-96.7404 -269.24089,-138.1172 l -479.62153,-243.016 c 13.98654,-12.82103 17.48318,-15.73486 27.39031,-31.46971 12.82099,-23.3109 19.81427,-36.71464 29.13861,-61.19108 4.07942,-19.81427 7.57606,-39.04575 11.07266,-58.86001 -18.06592,-14.5693 -25.64195,-20.39703 -43.12512,-37.29742 z"
   id="path6"
   style="stroke-width:5.82772" />
<path
   class="st4"
   d="m 157.15375,813.30998 c -5.82774,-39.62852 23.89365,-43.12515 55.36337,-50.11842 17.48315,-4.0794 34.96632,-8.15882 53.03226,-12.82098 l 6.99328,3.49662 c 5.24495,16.90041 6.41048,19.81426 6.99324,37.88019 l -2.91384,4.66218 c 9.32434,13.40379 9.90713,37.29744 9.90713,53.03228 26.80752,13.40377 64.68771,30.88695 90.32969,45.45625 l 82.1709,33.80079 68.18438,28.55585 c 212.12919,78.09156 401.53005,175.41436 507.01164,384.04696 l -22.1453,66.436 c -15.15201,-32.6352 -27.97304,-65.8533 -46.62155,-96.1575 C 792.37551,1035.3463 428.14285,1016.6976 200.86166,850.6074 182.21295,836.0381 174.63692,830.21037 157.15375,813.30998 Z"
   id="path7"
   style="stroke-width:5.82772" />
<path
   class="st1"
   d="m 277.20483,795.82682 c 9.32436,13.40376 9.90713,37.29741 9.90713,53.03227 C 261.47,834.87254 249.81454,826.13097 227.08642,808.06503 Z"
   id="path8"
   style="stroke-width:5.82772" />
<path
   class="st2"
   d="m 190.37175,908.30184 c 61.1911,29.13862 125.87881,62.93942 187.06991,93.82636 157.3485,79.257 369.47765,177.7455 490.11142,306.5381 -1.16549,6.4107 0,4.6624 -3.49658,9.3246 -217.95688,-150.3554 -464.46949,-236.6057 -702.82337,-348.49796 12.82102,-23.31089 19.2315,-36.71464 29.13862,-61.1911 z"
   id="path9"
   style="stroke-width:5.82772" />
<path
   class="st2"
   d="m 1866.4249,907.7191 c 5.8274,25.0592 14.5691,39.04572 27.39,61.19108 -67.6014,34.38352 -148.0241,68.76722 -217.9566,99.65412 -186.4873,81.0053 -346.7496,153.8519 -514.0052,271.5719 124.1303,-145.6931 324.6041,-240.1022 495.3564,-325.1871 69.3498,-35.54903 139.2825,-71.09812 209.2154,-107.23 z"
   id="path10"
   style="stroke-width:5.82772" />
<path
   class="st5"
   d="m 866.97039,1308.6663 c 11.07275,11.6555 18.06591,20.3971 27.39027,33.2181 -4.66228,-3.4967 -28.55577,-20.9797 -30.88696,-23.8935 4.07938,-4.6622 2.33119,-2.9139 3.49669,-9.3246 z"
   id="path11"
   style="stroke-width:5.82772" />
<path
   class="st2"
   d="m 115.19414,1063.3192 c 15.73485,8.159 69.93267,34.3837 75.7604,46.0391 9.32433,-1.7483 11.65543,-0.5827 20.97979,4.0794 103.15069,48.9529 204.55307,103.1507 306.53822,154.4347 l 197.5598,100.2368 c 34.38355,17.4832 81.00534,38.463 113.0579,58.2772 50.70108,99.6542 136.9514,106.0647 237.18805,102.568 146.8586,46.0391 314.1144,40.794 464.4696,12.8209 71.0982,-17.4832 120.0512,-35.5491 186.487,-61.7738 -142.1963,134.6204 -320.5246,223.7845 -513.4223,257.0024 C 949.14132,1780.1292 678.73494,1727.6797 463.69195,1580.821 288.2775,1460.7699 151.90879,1276.614 115.19414,1063.3192 Z"
   id="path12"
   style="stroke-width:5.82772" />
<path
   class="st4"
   d="m 115.19414,1063.3192 c 15.73485,8.159 69.93267,34.3837 75.7604,46.0391 106.06454,330.432 386.96076,533.2365 727.88261,570.5342 40.79392,12.2382 187.06975,2.3309 231.94315,-4.0795 105.4818,-7.5759 298.9622,-67.6017 379.3847,-134.0377 71.0984,-17.4832 120.051,-35.5491 186.4872,-61.7738 -142.1963,134.6204 -320.5247,223.7845 -513.4225,257.0024 C 948.55852,1780.1292 678.15218,1727.6797 463.10919,1580.821 288.2775,1460.7699 151.90879,1276.614 115.19414,1063.3192 Z"
   id="path13"
   style="stroke-width:5.82772" />
<path
   class="st0"
   d="m 551.69061,1409.486 c 109.56111,94.992 283.81011,184.7389 423.67529,228.4466 55.3632,16.9005 118.3026,27.9732 175.997,38.4632 -44.8732,6.4105 -190.56613,16.3177 -231.94305,4.0794 5.82778,-2.3311 3.49659,-0.5827 6.99317,-5.245 -25.64188,-13.4037 -68.767,-26.8076 -97.32277,-40.2113 C 711.95296,1579.6556 618.70931,1520.7956 551.69061,1409.486 Z"
   id="path14"
   style="stroke-width:5.82772" />
<path
   class="st4"
   d="m 1865.8419,1102.3651 c 25.0594,-12.821 50.1185,-25.642 74.5949,-39.0459 -16.3178,96.7404 -53.6149,185.9044 -103.7335,269.8237 -32.0525,53.0324 -93.2434,80.4226 -148.0241,104.3164 -163.1763,71.098 -343.2529,93.2433 -518.6673,63.5221 -1.7483,0 -3.4968,-0.5829 -5.2449,-1.1656 26.8073,-19.2315 41.3766,-29.7214 54.1976,-59.4428 11.6555,-23.8937 46.6219,-34.3837 71.6811,-44.2908 16.9004,-11.0726 52.4495,-28.5559 72.2637,-38.4628 48.3701,-25.0593 96.1574,-49.5357 145.1103,-74.0122 z"
   id="path15"
   style="stroke-width:5.82772" />
<path
   class="st6"
   d="m 1289.4803,1396.0822 c 16.9002,-11.0726 52.4492,-28.5559 72.2637,-38.4628 48.3699,-25.0593 96.1573,-49.5357 145.1103,-74.0122 l 358.9876,-181.8249 c -10.49,35.549 -32.0524,105.4818 -51.2839,136.9515 -14.5695,1.7483 -65.2705,39.6285 -82.171,48.9529 -136.3684,77.5087 -284.9755,117.1372 -442.9067,108.3955 z"
   id="path16"
   style="stroke-width:5.82772" />
<path
   class="st1"
   d="m 1289.4803,1396.0822 c 157.3483,8.7417 305.9554,-30.8868 442.9067,-108.3955 16.9005,-9.3244 67.6015,-47.2046 82.171,-48.9529 -11.0726,21.5625 -34.9664,65.2705 -50.7014,82.1709 -37.2973,39.6286 -130.5408,72.2637 -181.242,88.5813 -105.482,33.8009 -254.6714,50.7013 -364.2328,31.4697 11.0729,-23.8936 46.0391,-34.3835 71.0985,-44.8735 z"
   id="path17"
   style="stroke-width:5.82772" />
<path
   class="st1"
   d="m 1763.274,858.18345 c 4.0795,-19.81426 5.2449,-44.2907 13.4037,-62.93942 l 55.9463,13.98655 c -26.2248,22.14533 -38.4631,32.05248 -69.35,48.95287 z"
   id="path18"
   style="stroke-width:5.82772" />









<path
   class="st6"
   d="m 1689.8446,431.01138 146.2758,4.66217 c -15.7347,96.15742 -33.2178,218.53959 -54.1977,311.78316 -1.1655,8.15882 -6.4104,40.79407 -5.245,47.20455 -8.1588,18.64872 -9.3242,43.12514 -13.4037,62.93942 -29.7215,16.90038 -56.5288,30.30416 -87.4157,44.87345 23.8936,-122.38217 43.7078,-278.56515 63.5221,-403.86117 -17.4832,-1.74834 -40.794,-1.74834 -58.2774,-1.74834 2.3312,-19.81425 5.8278,-45.45624 8.7416,-65.85324 z"
   id="path28"
   style="stroke-width:5.82772" />
<path
   class="st6"
   d="m 217.76206,435.67355 149.18971,-4.0794 c 2.33108,20.97979 4.66216,45.45622 7.57604,65.85325 -18.64871,0.58277 -41.37683,0.58277 -59.44279,2.33109 21.56258,131.70654 42.54237,263.41307 62.35664,395.11961 -25.64197,-14.5693 -63.52218,-32.05248 -90.3297,-45.45625 0,-15.73484 -1.16556,-40.21127 -9.90713,-53.03228 l 2.91386,-4.66218 c -0.58279,-17.48315 -1.74833,-20.97978 -6.99328,-37.88019 l -6.99324,-3.49662 5.8277,-4.07942 c -2.33109,-20.9798 -6.99325,-46.03899 -11.07266,-67.01881 -16.31763,-80.42257 -27.3903,-163.17623 -43.12515,-243.5988 z"
   id="path29"
   style="stroke-width:5.82772" />
<circle
   class="st0"
   cx="947.97571"
   cy="1337.2223"
   r="113.64059"
   id="circle29"
   style="stroke-width:5.82772" />
<path
   style="fill:#00566d;fill-opacity:1;stroke-width:2.83641"
   d="m 1011.1137,1222.6483 c -25.24792,-33.9348 -63.5802,-75.6556 -90.4552,-98.4512 l -13.87226,-11.7667 9.61766,-0.028 c 5.28971,-0.015 28.11542,-1.354 50.72381,-2.9747 92.97759,-6.6647 155.57799,-29.9038 204.68789,-75.9858 38.0731,-35.72595 51.0964,-72.70387 44.9665,-127.67706 -1.6696,-14.97361 -4.1147,-28.3037 -5.4334,-29.62243 -1.3187,-1.31871 -3.2558,4.47082 -4.3047,12.86565 -2.8727,22.99219 -16.5512,59.54111 -30.0207,80.21471 -31.6542,48.58493 -87.1488,80.15143 -164.5026,93.57243 -54.1332,9.3924 -139.0859,10.7372 -163.38091,2.5867 -8.82968,-2.9622 -83.26133,-47.8214 -82.58315,-49.772 0.34438,-0.9905 13.57112,-11.4121 29.39276,-23.15903 15.82163,-11.74695 56.66588,-43.57835 90.765,-70.73641 34.09912,-27.15808 81.14415,-63.28579 104.5445,-80.28382 59.49,-43.21359 87.8214,-65.31223 95.5093,-74.49769 3.6307,-4.33789 17.3256,-28.55682 30.4331,-53.81983 13.1074,-25.26301 29.7229,-53.28675 36.9232,-62.27498 25.5427,-31.88516 64.1247,-51.00762 108.6242,-53.83745 54.947,-3.49423 96.7122,15.14188 124.4246,55.51962 8.5944,12.52217 11.1369,14.32713 22.4556,15.94166 7.0201,1.00136 26.6202,5.0807 43.5558,9.06519 l 30.7922,7.24451 -27.3265,14.5718 c -53.4402,28.49688 -70.1604,50.70915 -69.9936,92.98427 0.051,13.034 2.062,33.90925 4.4678,46.38944 10.4993,54.46233 10.9242,91.1688 1.4621,126.30826 -2.8419,10.55406 -4.3775,11.62333 -51.7988,36.06946 -129.6205,66.8207 -215.3699,136.7863 -286.8011,234.0101 -8.8828,12.0902 -16.4194,21.9533 -16.7479,21.9181 -0.3286,-0.035 -12.0849,-15.5038 -26.1252,-34.3748 z m 312.1337,-517.11331 c 9.7407,-9.74066 9.7941,-29.09815 0.1056,-38.20008 -18.6588,-17.52908 -51.004,0.78057 -45.5165,25.76551 4.1,18.66665 31.6381,26.20727 45.4109,12.43457 z"
   id="path147" /><path
   style="fill:#00566d;fill-opacity:1;stroke-width:2.83641"
   d="m 331.37866,869.74761 -41.5436,-20.84617 -2.06254,-17.85594 c -1.1344,-9.82081 -3.34123,-21.04693 -4.90408,-24.947 -1.56284,-3.90006 -2.6236,-12.49408 -2.35725,-19.09783 0.49568,-12.2897 -4.83325,-34.7939 -8.23909,-34.7939 -1.04292,0 -1.36626,-3.61065 -0.71857,-8.02368 0.6477,-4.41304 -4.63379,-39.83268 -11.73662,-78.7103 -12.56865,-68.79496 -34.71222,-196.06784 -37.83662,-217.47063 l -1.55272,-10.63653 11.00998,-0.33273 c 6.0555,-0.18301 38.65132,-1.14029 72.43515,-2.12731 l 61.42514,-1.79456 1.61062,12.76382 c 0.88585,7.02011 2.4585,21.37942 3.4948,31.90958 l 1.88418,19.14575 h -28.75576 c -26.55066,0 -28.75577,0.4212 -28.75577,5.49278 0,3.02103 6.29279,44.18438 13.98397,91.47412 23.24618,142.93064 46.03134,291.70505 45.06898,294.27532 -0.49863,1.33175 -19.60122,-6.95941 -42.4502,-18.42479 z"
   id="path148" /><path
   style="fill:#00566d;fill-opacity:1;stroke-width:2.83641"
   d="m 1679.0875,897.61536 c 0,-1.36159 5.0553,-32.40189 11.234,-68.9784 6.1786,-36.57652 15.7637,-97.13596 21.3003,-134.57652 5.5365,-37.44057 13.9278,-94.23961 18.6473,-126.2201 4.7196,-31.98049 9.199,-61.0182 9.9542,-64.52825 1.3559,-6.30142 0.9962,-6.38191 -28.5172,-6.38191 -29.509,0 -29.8729,-0.0814 -28.5314,-6.38192 0.7474,-3.51005 2.8669,-18.18433 4.7102,-32.60951 l 3.3513,-26.22758 37.1808,1.49541 c 109.5905,4.40776 106.7806,4.11865 105.2124,10.82558 -0.7841,3.35351 -7.2038,42.47422 -14.2661,86.9349 -13.9959,88.11057 -23.5062,142.33756 -32.6175,185.98088 -3.2343,15.49231 -7.6233,40.29346 -9.7533,55.11368 -4.617,32.12262 -12.4526,72.92297 -15.5285,80.85674 -2.2926,5.91348 -82.3765,49.36652 -82.3765,44.697 z"
   id="path149" /><path
   style="fill:#00708e;fill-opacity:1;stroke-width:2.83641"
   d="m 1304.6819,1388.925 c 7.02,-4.1672 113.598,-58.6723 236.8399,-121.1225 123.2419,-62.4502 246.0937,-124.7415 273.0041,-138.425 26.9104,-13.6836 48.928,-24.3524 48.928,-23.7082 0,5.3238 -29.8224,89.6515 -38.0993,107.7316 -8.8576,19.349 -12.1603,23.7438 -20.9538,27.8834 -5.7414,2.7028 -24.0822,13.7769 -40.7573,24.6092 -82.9717,53.899 -183.7861,94.9094 -281.6448,114.5707 -50.6815,10.1827 -76.6254,12.9593 -136.189,14.5753 l -53.8917,1.4622 z"
   id="path150" /><path
   style="fill:#00566d;fill-opacity:1;stroke-width:2.83641"
   d="M 968.56766,1748.8564 C 658.06437,1728.5288 386.37385,1578.7893 229.33775,1341.437 c -50.8634,-76.8774 -88.60806,-164.8819 -107.1264,-249.7731 -4.98249,-22.8406 -5.04848,-24.8676 -0.75732,-23.2592 11.69689,4.3845 57.42417,31.1685 62.45975,36.5848 3.07957,3.3126 10.9317,20.7011 17.44917,38.6413 66.94302,184.2701 196.87716,335.0978 371.44298,431.171 106.90775,58.8374 219.06504,91.9729 375.90688,111.0571 40.8457,4.9701 149.97599,-0.7446 229.74889,-12.0309 115.7773,-16.3802 259.5386,-66.6463 332.8302,-116.3741 17.6705,-11.9893 27.4407,-16.0394 64.0113,-26.5356 23.7368,-6.8128 62.1831,-19.4523 85.4361,-28.0879 23.2531,-8.6355 42.7322,-15.247 43.2869,-14.6924 0.5548,0.5548 -8.9777,9.5762 -21.1834,20.0474 -153.7799,131.9292 -335.2661,211.287 -538.418,235.4325 -36.0906,4.2894 -142.1119,7.4477 -175.85714,5.2385 z"
   id="path151" /><path
   style="fill:#00566d;fill-opacity:1;stroke-width:2.83641"
   d="M 878.83198,1205.0663 C 821.00312,1149.0981 741.1845,1098.8687 636.70807,1052.6991 614.86774,1043.0476 549.83838,1016.0921 492.1984,992.7982 308.99406,918.76003 248.34565,887.34058 179.3375,830.7178 c -19.23382,-15.78179 -20.56395,-17.60072 -20.56395,-28.1209 0,-8.92086 1.90702,-13.14161 9.21832,-20.40258 8.15932,-8.10315 14.34367,-10.37493 53.8327,-19.77509 24.53791,-5.84111 45.76033,-9.91197 47.16094,-9.04635 3.06067,1.89161 8.91712,24.09642 8.91712,33.80937 0,6.37577 -2.06115,7.44507 -25.52766,13.24344 -14.04022,3.46922 -25.52766,7.19503 -25.52766,8.27959 0,2.46744 30.73452,24.78665 49.63712,36.04613 47.79387,28.46882 145.33478,71.92818 290.73168,129.53549 175.31538,69.4613 274.76995,130.0866 360.59008,219.8078 l 26.34009,27.5374 -16.89877,1.8403 c -9.29433,1.0121 -20.72792,2.6195 -25.40799,3.5721 -7.72234,1.5717 -10.77463,-0.4606 -33.00754,-21.9782 z"
   id="path152" /><path
   style="fill:#00566d;fill-opacity:1;stroke-width:2.83641"
   d="m 1245.1173,1509.3892 c -14.8202,-1.4291 -38.3205,-4.2264 -52.2229,-6.2161 l -25.2769,-3.6175 15.9066,-12.0097 c 14.5596,-10.9927 29.7757,-29.2734 33.95,-40.7879 1.3993,-3.8596 3.7028,-4.209 13.9505,-2.1157 22.8519,4.6681 118.2118,6.2563 159.7676,2.661 76.8601,-6.6499 144.4998,-20.5139 212.7305,-43.6031 101.4841,-34.342 150.0135,-62.3918 176.346,-101.9271 24.9615,-37.4768 55.7566,-102.6623 71.701,-151.7736 l 14.9187,-45.9512 34.4469,-18.3303 c 24.5651,-13.0718 34.7015,-17.2029 35.3342,-14.4004 1.4294,6.3311 -12.8898,62.443 -25.1482,98.5475 -24.4033,71.8737 -68.8424,157.9068 -97.4105,188.5841 -29.226,31.3838 -72.0401,56.1279 -153.4599,88.6911 -71.9509,28.7762 -142.4733,46.9789 -225.4944,58.2029 -39.0708,5.2823 -152.2354,7.6916 -190.0392,4.046 z"
   id="path153" /></svg>
