<?xml version="1.0" encoding="UTF-8" standalone="no"?>
<!-- Generator: Adobe Illustrator 27.9.0, SVG Export Plug-In . SVG Version: 6.00 Build 0)  -->

<svg
   version="1.1"
   id="Layer_1"
   x="0px"
   y="0px"
   viewBox="0 0 2048 2048"
   xml:space="preserve"
   sodipodi:docname="novelnest.svg"
   width="2048"
   height="2048"
   inkscape:export-filename="C:\Users\VIRUSILVESTER\3D Objects\NovelNest\assets\images\splash-icon.png"
   inkscape:export-xdpi="48"
   inkscape:export-ydpi="48"
   inkscape:version="1.4.2 (f4327f4, 2025-05-13)"
   xmlns:inkscape="http://www.inkscape.org/namespaces/inkscape"
   xmlns:sodipodi="http://sodipodi.sourceforge.net/DTD/sodipodi-0.dtd"
   xmlns="http://www.w3.org/2000/svg"
   xmlns:svg="http://www.w3.org/2000/svg"><defs
   id="defs29" /><sodipodi:namedview
   id="namedview29"
   pagecolor="#ffffff"
   bordercolor="#000000"
   borderopacity="0.25"
   inkscape:showpageshadow="2"
   inkscape:pageopacity="0.0"
   inkscape:pagecheckerboard="0"
   inkscape:deskcolor="#d1d1d1"
   inkscape:zoom="0.35355339"
   inkscape:cx="1013.9911"
   inkscape:cy="1005.5058"
   inkscape:window-width="1920"
   inkscape:window-height="1017"
   inkscape:window-x="-8"
   inkscape:window-y="-8"
   inkscape:window-maximized="1"
   inkscape:current-layer="Layer_1" />
<style
   type="text/css"
   id="style1">
	.st0{fill:#00566D;}
	.st1{fill:#FFFFFF;}
	.st2{fill:#00708E;}
	.st3{fill:#EC8000;}
	.st4{fill:#71420E;}
	.st5{fill:#5493A2;}
	.st6{fill:#96632D;}
	.st7{fill:#363634;}
</style>
<path
   class="st0"
   d="m 595.57707,327.1772 c 143.35395,6.99288 318.95277,21.36712 420.73793,134.03011 1.554,1.55397 2.7194,3.10795 4.2734,4.66193 102.9507,-114.60548 262.6213,-130.53369 409.0832,-138.30354 5.4389,-0.3885 10.4893,-0.3885 15.9282,-0.3885 -5.0503,37.29534 -48.9501,414.91061 -45.4537,420.738 17.4823,-7.76985 35.7414,-14.76274 53.2236,-22.1441 20.5902,-9.71233 38.4609,-18.64767 58.2739,-29.91396 2.7195,-13.20878 3.4965,-29.52548 8.9355,-41.95726 -0.7771,-4.27342 2.7194,-26.02903 3.4964,-31.46794 19.4246,4.66192 60.9934,13.98575 77.3101,21.75561 1.9425,53.61204 1.9425,90.1304 44.2883,132.47613 16.3167,-8.15834 33.4103,-15.15122 45.8421,5.43892 3.1079,24.86355 -42.7342,40.79177 -61.7704,50.89259 -10.8778,64.48985 -35.7415,123.92929 -69.1518,179.87231 -21.3671,35.3529 -62.1589,53.6121 -98.6772,69.5403 -108.7781,47.3961 -228.8224,62.1588 -345.7589,42.3457 -1.1654,0 -2.3309,-0.3885 -3.4964,-0.777 -26.4176,10.8778 -36.9069,14.7627 -65.2669,19.4247 97.9003,30.691 209.3978,27.1945 309.6291,8.5468 47.3961,-11.6548 80.0296,-23.6981 124.3178,-41.1802 -94.7924,89.7418 -213.6713,149.1813 -342.2624,171.3253 C 969.30744,1310.8417 789.04659,1275.8773 645.69267,1177.977 528.75625,1097.9474 437.84888,975.18365 413.7623,833.38369 c -12.82026,-6.2159 -71.48272,-29.52548 -61.3819,-50.11562 10.8778,-21.75561 27.19451,-14.76273 45.0652,-6.21589 33.02191,-31.07944 41.56875,-67.5978 44.28821,-110.72052 -3.88493,-26.41754 15.92821,-28.74849 36.90683,-33.41041 11.6548,-2.71945 23.30959,-5.4389 35.35287,-8.54684 l 4.66192,2.33095 c 3.49644,11.26631 4.27343,13.20876 4.66192,25.25205 l -1.94247,3.10794 c 6.2159,8.93536 6.60439,24.86357 6.60439,35.35287 17.87068,8.93535 43.12273,20.59015 60.21643,30.30247 l 54.77752,22.5326 C 627.82199,604.17276 612.28227,465.86924 595.57707,327.1772 Z"
   id="path1"
   style="stroke-width:3.88493" />
<path
   class="st1"
   d="m 595.57707,327.1772 c 143.35395,6.99288 318.95277,21.36712 420.73793,134.03011 1.554,1.55397 2.7194,3.10795 4.2734,4.66193 102.9507,-114.60548 262.6213,-130.53369 409.0832,-138.30354 5.4389,-0.3885 10.4893,-0.3885 15.9282,-0.3885 -5.0503,37.29534 -48.9501,414.91061 -45.4537,420.738 -15.9282,5.05042 -32.2448,13.59726 -48.173,19.81315 -15.1513,3.88493 -28.7485,10.48932 -43.1227,16.7052 C 1191.914,833.38369 1084.3013,901.36997 1026.0273,1017.5294 955.71024,878.44888 829.4499,813.95903 688.03841,761.51246 L 642.58473,742.4763 C 627.82199,604.17276 612.28227,465.86924 595.57707,327.1772 Z"
   id="path2"
   style="stroke-width:3.88493" />
<path
   class="st2"
   d="m 595.57707,327.1772 c 143.35395,6.99288 318.95277,21.36712 420.73793,134.03011 1.554,1.55397 2.7194,3.10795 4.2734,4.66193 102.9507,-114.60548 262.6213,-130.53369 409.0832,-138.30354 5.4389,-0.3885 10.4893,-0.3885 15.9282,-0.3885 -5.0503,37.29534 -48.9501,414.91061 -45.4537,420.738 -15.9282,5.05042 -32.2448,13.59726 -48.173,19.81315 9.3238,-72.25971 17.8706,-144.51943 25.252,-217.16763 6.2159,-57.49698 14.3743,-119.26738 18.6477,-176.76436 -29.9141,1.55399 -59.4395,4.27343 -88.9649,8.15837 -95.9578,13.20876 -203.1819,41.95725 -264.5638,122.7638 v 113.43998 c -14.7628,9.71234 -29.5256,19.42466 -43.89986,29.52548 1.5541,-44.6767 0.3886,-98.67723 -0.3884,-143.74244 -3.1079,-3.88493 -6.2159,-8.15836 -9.3238,-11.6548 -81.97198,-92.84984 -228.04537,-111.886 -344.20484,-119.26737 13.98574,129.36819 28.36001,258.7364 43.51121,388.10459 L 642.58473,742.08781 C 627.82199,604.17276 612.28227,465.86924 595.57707,327.1772 Z"
   id="path3"
   style="stroke-width:3.88493" />
<path
   class="st3"
   d="m 1171.3239,520.64676 c 45.065,-2.33097 71.8712,8.15835 96.7347,47.00765 22.5326,3.10795 37.6838,6.99288 59.4394,13.20878 -9.3239,4.6619 -20.5901,10.10082 -29.5255,15.15122 -58.2739,33.79889 -32.6335,70.70574 -28.36,123.54079 1.554,21.36713 -1.1655,36.51836 -6.6044,56.72001 -97.5117,45.06518 -175.2103,98.28874 -235.4268,188.41913 -33.79886,-45.45369 -46.61906,-64.48985 -90.90733,-100.23121 52.05807,-0.3885 93.62673,-2.71945 141.02303,-24.47506 57.8854,-32.24493 79.6411,-66.43233 65.2668,-132.47614 -13.5973,117.7134 -120.8214,132.86463 -218.33313,131.69915 -34.18733,-0.3885 -51.66957,-23.69808 -82.36052,-37.29534 47.39615,-31.85643 93.23839,-74.20217 140.24609,-108.00108 11.2662,-7.76985 74.20206,-53.22355 77.69846,-59.43943 33.7989,-54.00054 35.3529,-99.84272 111.1092,-113.82847 z"
   id="path4"
   style="stroke-width:3.88493" />
<path
   class="st1"
   d="m 1198.5183,566.48894 c 5.8274,-2.71946 12.4318,-1.94247 17.4822,1.94247 5.0504,3.88492 7.3813,10.10081 6.2158,16.3167 -1.1654,6.2159 -5.4389,11.2663 -11.6547,13.20876 -8.5469,2.71945 -17.8707,-1.55397 -21.3672,-10.10082 -3.1079,-8.15835 0.7771,-17.48218 9.3239,-21.36711 z"
   id="path5"
   style="stroke-width:3.88493" />
<path
   class="st1"
   d="m 440.56833,666.33166 c -3.88494,-26.41754 15.92821,-28.74849 36.90685,-33.41041 11.65478,-2.71945 23.30957,-5.4389 35.35286,-8.54684 l 4.66192,2.33095 c 3.49644,11.26631 4.27342,13.20876 4.66191,25.25205 l -1.94246,3.10794 c 6.21588,8.93536 6.60438,24.86357 6.60438,35.35287 17.87068,8.93535 43.12273,20.59015 60.21642,30.30247 l 54.77753,22.5326 45.45371,19.03616 c 141.4115,52.05807 267.67169,116.93641 337.98885,256.01695 l -14.7627,44.2882 h 28.36 c 113.44,-255.23995 348.8668,-234.64983 532.2355,-367.90295 2.7195,12.82028 4.662,22.5326 8.5469,35.35287 3.8848,16.70521 9.7123,26.02904 18.2591,40.79177 5.0505,8.15837 12.0433,15.15124 18.6477,22.14411 -122.7638,58.27396 -243.5851,125.09477 -365.9604,184.92272 -44.2883,21.75561 -91.6845,45.84218 -134.8071,69.92878 l -8.547,25.6406 c -40.0147,37.6838 -133.25306,41.1802 -172.10232,-0.7771 -4.6619,-5.0504 -9.32379,-19.0362 -11.65474,-26.4175 -52.05813,-30.3025 -124.7063,-64.48986 -179.48386,-92.07287 L 424.25161,792.20342 c 9.32384,-8.54686 11.6548,-10.48932 18.25918,-20.97863 8.54685,-15.53973 13.20877,-24.47506 19.42466,-40.79177 2.71945,-13.20877 5.05041,-26.02904 7.38136,-39.23781 -12.04328,-9.71232 -17.09368,-13.59726 -28.74848,-24.86355 z"
   id="path6"
   style="stroke-width:3.88493" />
<path
   class="st4"
   d="m 440.56833,666.33166 c -3.88494,-26.41754 15.92821,-28.74849 36.90685,-33.41041 11.65478,-2.71945 23.30957,-5.4389 35.35286,-8.54684 l 4.66192,2.33095 c 3.49644,11.26631 4.27342,13.20876 4.66191,25.25205 l -1.94246,3.10794 c 6.21588,8.93536 6.60438,24.86357 6.60438,35.35287 17.87068,8.93535 43.12273,20.59015 60.21642,30.30247 l 54.77753,22.5326 45.45371,19.03616 c 141.4115,52.05807 267.67169,116.93641 337.98885,256.01695 l -14.7627,44.2882 C 1000.3868,1040.839 991.83994,1018.6949 979.40824,998.49324 864.0258,814.34752 621.21761,801.91574 469.70531,691.19521 457.27353,681.48289 452.22313,677.59795 440.56833,666.33166 Z"
   id="path7"
   style="stroke-width:3.88493" />
<path
   class="st1"
   d="m 520.5979,654.67687 c 6.21589,8.93534 6.60438,24.86355 6.60438,35.35287 -17.09368,-9.32384 -24.86355,-15.15123 -40.01478,-27.19452 z"
   id="path8"
   style="stroke-width:3.88493" />
<path
   class="st2"
   d="m 462.71243,729.65602 c 40.79178,19.42466 83.9145,41.95726 124.70628,62.5474 104.89312,52.83505 246.3046,118.49039 326.72265,204.34735 -0.77695,4.27343 0,3.10796 -2.33094,6.21593 C 766.51398,902.53545 602.18145,845.03847 443.28777,770.4478 c 8.54686,-15.53973 12.82028,-24.47506 19.42466,-40.79178 z"
   id="path9"
   style="stroke-width:3.88493" />
<path
   class="st2"
   d="m 1580.0186,729.26754 c 3.8847,16.7052 9.7122,26.02903 18.259,40.79177 -45.0651,22.92109 -98.6772,45.84219 -145.2963,66.43232 -124.3179,54.00054 -231.1534,102.56217 -342.6509,181.03777 82.7489,-97.12326 216.3906,-160.05915 330.2191,-216.77913 46.2306,-23.69809 92.8498,-47.39616 139.4691,-71.48273 z"
   id="path10"
   style="stroke-width:3.88493" />
<path
   class="st5"
   d="m 913.75289,996.55077 c 7.38141,7.76983 12.0433,13.59723 18.25919,22.14413 -3.108,-2.331 -19.03614,-13.9858 -20.59014,-15.9282 2.71942,-3.10797 1.554,-1.9425 2.33095,-6.21593 z"
   id="path11"
   style="stroke-width:3.88493" />
<path
   class="st2"
   d="m 412.59683,832.99519 c 10.48931,5.4389 46.61916,22.92109 50.5041,30.69095 6.21588,-1.16547 7.76985,-0.3885 13.98575,2.71945 68.76327,32.63343 136.36107,68.76328 204.34736,102.95067 l 131.69915,66.82074 c 22.92107,11.6549 54.00051,25.6406 75.36768,38.8494 33.79886,66.4323 91.29587,70.7058 158.11653,68.3748 97.9003,30.691 209.3979,27.1945 309.6291,8.5468 47.3961,-11.6548 80.0296,-23.6981 124.3177,-41.1802 -94.7922,89.7418 -213.6711,149.1813 -342.2624,171.3253 C 968.53044,1310.8417 788.26964,1275.8773 644.91568,1177.977 527.97927,1097.9474 437.07189,975.18365 412.59683,832.99519 Z"
   id="path12"
   style="stroke-width:3.88493" />
<path
   class="st4"
   d="m 412.59683,832.99519 c 10.48931,5.4389 46.61916,22.92109 50.5041,30.69095 70.70573,220.27566 257.95939,355.47106 485.22786,380.33476 27.19445,8.1584 124.70621,1.5539 154.62011,-2.7195 70.3173,-5.0503 199.297,-45.0652 252.909,-89.3534 47.3963,-11.6548 80.0296,-23.6981 124.3178,-41.1802 -94.7922,89.7418 -213.6711,149.1813 -342.2624,171.3253 C 968.14194,1310.8417 787.88116,1275.8773 644.5272,1177.977 527.97927,1097.9474 437.07189,975.18365 412.59683,832.99519 Z"
   id="path13"
   style="stroke-width:3.88493" />
<path
   class="st0"
   d="m 703.57817,1063.76 c 73.03664,63.3245 189.19612,123.1524 282.43437,152.2893 36.90676,11.2663 78.86406,18.6477 117.32486,25.6406 -29.9139,4.2735 -127.03706,10.8779 -154.62014,2.7195 3.88498,-1.554 2.33095,-0.3885 4.66188,-3.4965 -17.09365,-8.9353 -45.84214,-17.8707 -64.87827,-26.806 -78.0871,-36.9068 -140.24607,-76.1446 -184.9227,-150.3469 z"
   id="path14"
   style="stroke-width:3.88493" />
<path
   class="st4"
   d="m 1579.63,859.02423 c 16.7053,-8.54686 33.4104,-17.0937 49.7271,-26.02904 -10.8779,64.48985 -35.7413,123.92929 -69.1518,179.87231 -21.3671,35.3529 -62.1588,53.6121 -98.6772,69.5403 -108.7781,47.3961 -228.8224,62.1588 -345.7588,42.3457 -1.1655,0 -2.3311,-0.3885 -3.4964,-0.777 17.8705,-12.8202 27.5829,-19.8131 36.1297,-39.6263 7.7699,-15.9282 31.0795,-22.9211 47.7847,-29.5255 11.2663,-7.3813 34.9644,-19.0362 48.1731,-25.6405 32.245,-16.7052 64.1014,-33.02191 96.7348,-49.33863 z"
   id="path15"
   style="stroke-width:3.88493" />
<path
   class="st6"
   d="m 1195.4104,1054.8247 c 11.2662,-7.3813 34.9642,-19.0362 48.1731,-25.6405 32.2448,-16.7052 64.1013,-33.02191 96.7348,-49.33863 L 1579.63,858.63574 c -6.9929,23.69806 -21.3671,70.31724 -34.1874,91.29586 -9.7124,1.16549 -43.5112,26.41753 -54.7776,32.63342 -90.9072,51.66958 -189.973,78.08708 -295.2546,72.25968 z"
   id="path16"
   style="stroke-width:3.88493" />
<path
   class="st1"
   d="m 1195.4104,1054.8247 c 104.893,5.8274 203.9589,-20.5901 295.2546,-72.25968 11.2664,-6.21589 45.0652,-31.46793 54.7776,-32.63342 -7.3813,14.37425 -23.3096,43.51123 -33.799,54.7775 -24.8635,26.4176 -87.0224,48.1732 -120.8213,59.0509 -70.3173,22.5327 -169.7714,33.799 -242.8082,20.9787 7.3815,-15.9282 30.691,-22.9211 47.3963,-29.914 z"
   id="path17"
   style="stroke-width:3.88493" />
<path
   class="st1"
   d="m 1511.2552,696.24563 c 2.7195,-13.20877 3.4964,-29.52548 8.9353,-41.95726 l 37.2954,9.32384 c -17.4822,14.76273 -25.6406,21.36712 -46.2307,32.63342 z"
   id="path18"
   style="stroke-width:3.88493" />
<path
   class="st7"
   d="m 529.92173,1563.3622 c -13.59725,-61.7704 -74.59066,-100.6198 -136.36106,-86.634 -61.38191,13.5973 -99.84273,74.2022 -86.24547,135.5841 13.59726,61.3819 73.81368,100.2312 135.19559,87.0224 61.7704,-13.2087 101.0082,-74.2022 87.41094,-135.9725 z m -97.12326,79.641 c -71.09424,10.1009 -86.63396,-82.3604 -28.35999,-110.332 76.53313,-7.7699 84.30298,84.303 28.35999,110.332 z"
   id="path19"
   style="stroke-width:3.88493" />
<path
   class="st7"
   d="m 1567.1982,1627.8521 c -43.1227,24.8635 -84.6915,34.1873 -106.0586,-22.1441 h 155.7858 c 0.3885,-89.3535 -39.6264,-133.6416 -131.3107,-127.0373 -29.1371,6.6044 -57.8856,19.8132 -73.4252,47.3962 -72.2597,128.5912 91.6843,231.9303 189.973,136.7495 l -23.3095,-25.252 c -4.2734,-5.0505 -6.2159,-8.9354 -11.6548,-9.7123 z m -67.9863,-101.7852 c 33.7989,-1.5541 44.6767,11.2662 56.3316,40.7917 l -35.353,0.3885 h -60.2164 c 8.1584,-24.0866 15.1513,-33.7988 39.2378,-41.1802 z"
   id="path20"
   style="stroke-width:3.88493" />
<path
   class="st7"
   d="m 954.54464,1627.4635 c -8.15832,0 -24.08656,23.3097 -60.9934,19.0362 -14.76273,-1.9424 -28.36002,-9.7123 -37.6838,-21.3672 -4.66189,-6.2158 -6.99294,-12.0432 -9.71236,-19.0361 h 155.00872 c 0.7769,-87.0224 -38.07226,-134.03 -128.59117,-127.0373 -66.82085,13.2089 -102.95066,67.5979 -88.57641,134.4188 6.21589,28.3598 23.30956,52.8349 48.1731,67.9862 50.50414,31.0794 113.82852,22.1441 156.17422,-18.2592 -8.5468,-8.9354 -18.2591,-18.6476 -26.806,-27.5831 z m -68.37472,-101.3966 c 33.02191,-1.5541 42.34569,13.9857 53.61203,40.7917 l -37.29531,0.3885 c -15.53976,0 -47.78472,3.885 -57.1085,-4.6619 1.16542,-16.3167 25.6405,-33.0219 40.79178,-36.5183 z"
   id="path21"
   style="stroke-width:3.88493" />
<path
   class="st7"
   d="m 1259.1232,1478.6707 c 94.0153,-6.2159 107.2241,50.504 104.1161,130.1451 -1.1655,27.5831 0,58.6625 -0.3885,86.634 h -65.2668 c 0,-17.4822 0.777,-35.3529 0.3885,-52.835 -1.554,-45.4537 14.7627,-125.4832 -59.051,-106.0586 -38.4607,23.3095 -25.6405,115.7708 -25.252,158.8936 -21.3671,-0.3885 -43.8997,-0.3885 -65.6554,-0.3885 v -214.4481 c 20.2017,0.3885 40.0149,-1.9425 59.828,0.7769 5.8274,6.993 -0.3885,11.6548 5.0504,19.4247 18.2592,-11.6548 25.252,-17.4822 46.2307,-22.1441 z"
   id="path22"
   style="stroke-width:3.88493" />
<path
   class="st7"
   d="m 166.29221,1478.6707 c 74.59067,-6.6043 105.67012,29.5254 104.89313,103.3391 -0.38849,36.9069 -0.38849,75.3677 -0.38849,112.663 l -64.87834,0.3885 c 0.3885,-28.36 -0.38849,-58.2739 0.77698,-86.6339 1.55397,-43.1227 -3.49644,-91.6844 -62.15889,-70.3173 -33.41042,22.9211 -22.14411,116.9365 -21.75561,156.9512 -21.75563,-0.3885 -43.511241,0 -65.266851,0 l 0.3885,-214.4481 c 20.20164,0.3885 38.07232,-1.5541 58.273961,0.3885 4.27342,4.6619 2.71945,10.4893 3.88493,19.036 3.88493,0 26.80602,-15.9281 46.23068,-21.367 z"
   id="path23"
   style="stroke-width:3.88493" />
<path
   class="st7"
   d="m 1712.1061,1479.0591 c 37.6838,-5.0503 69.9288,1.5541 103.7276,17.8707 -6.6044,15.5398 -13.2087,30.691 -20.2016,45.8422 -17.4822,-8.1584 -90.5188,-34.5759 -93.2383,1.1656 14.3742,34.5759 114.217,8.5468 120.0444,73.4251 5.0504,56.72 -31.8565,74.2022 -80.8066,80.8066 -45.4537,1.1654 -69.1517,-2.7195 -108.3895,-25.252 6.9928,-15.1513 13.5972,-30.691 20.2015,-45.8422 20.2016,11.2663 101.7853,43.1226 106.4472,3.1079 -9.7124,-21.3672 -70.3173,-18.2592 -97.1232,-38.0723 -35.7415,-26.806 -31.8565,-64.4899 -0.777,-94.4039 11.6546,-10.8778 33.7988,-15.9282 50.1155,-18.6477 z"
   id="path24"
   style="stroke-width:3.88493" />
<path
   class="st7"
   d="m 712.90195,1480.6132 65.65534,0.3885 c -8.15836,17.4822 -14.76273,34.1874 -21.75556,52.058 -22.14413,51.2811 -45.45378,110.332 -64.87838,162.3901 h -69.54027 c -8.15834,-24.475 -22.1441,-54.389 -32.24493,-78.8641 -18.64766,-45.0652 -36.90683,-90.5188 -54.7775,-135.9725 h 67.98628 c 18.64767,45.4537 36.90684,94.4038 54.38903,140.246 17.4822,-46.6193 37.29538,-93.2384 55.16599,-140.246 z"
   id="path25"
   style="stroke-width:3.88493" />
<path
   class="st7"
   d="m 1866.3379,1431.2745 h 64.1013 v 54.0006 l 50.1157,0.3885 v 49.7271 l -50.1157,-0.3886 c 0.3885,38.4609 -18.2591,138.3036 49.3386,102.5623 l 13.9858,40.7917 c 0.7771,2.3309 0.7771,3.4965 0.7771,6.2159 -8.547,9.3238 -22.9213,10.8778 -34.9645,12.4318 -111.4975,13.9858 -94.0153,-88.9649 -93.2383,-162.3902 l -31.8564,-0.3884 -0.3886,-49.7271 31.8565,0.3885 z"
   id="path26"
   style="stroke-width:3.88493" />
<path
   class="st7"
   d="m 1035.3512,1403.6915 c 22.144,0.3885 43.8997,0.3885 66.0438,0.3885 v 290.9813 l -66.0438,-0.3885 z"
   id="path27"
   style="stroke-width:3.88493" />
<path
   class="st6"
   d="m 1462.305,411.48021 97.5118,3.10794 c -10.4893,64.10135 -22.144,145.68489 -36.1298,207.84379 -0.777,5.43891 -4.2734,27.19452 -3.4965,31.46794 -5.4389,12.43178 -6.2158,28.74848 -8.9353,41.95726 -19.8132,11.26629 -37.6838,20.20163 -58.2739,29.91396 15.9282,-81.58355 29.137,-185.6997 42.3457,-269.2257 -11.6548,-1.16549 -27.1945,-1.16549 -38.8494,-1.16549 1.5541,-13.20876 3.885,-30.30246 5.8274,-43.8997 z"
   id="path28"
   style="stroke-width:3.88493" />
<path
   class="st6"
   d="m 480.97161,414.58815 99.45423,-2.71945 c 1.55397,13.98574 3.10794,30.30245 5.05041,43.89971 -12.43178,0.38849 -27.58301,0.38849 -39.6263,1.55397 14.37425,87.79944 28.35999,175.59887 41.56876,263.39831 -17.09369,-9.71232 -42.34574,-21.36712 -60.21643,-30.30247 0,-10.4893 -0.77699,-26.80601 -6.60438,-35.35287 l 1.94247,-3.10794 c -0.3885,-11.65479 -1.16549,-13.98574 -4.66193,-25.25205 l -4.6619,-2.33095 3.88492,-2.71946 c -1.55397,-13.98575 -4.66191,-30.69094 -7.38136,-44.6767 -10.87781,-53.61204 -18.25918,-108.77806 -28.74849,-162.3901 z"
   id="path29"
   style="stroke-width:3.88493" />
<circle
   class="st0"
   cx="967.75342"
   cy="1015.587"
   r="75.756149"
   id="circle29"
   style="stroke-width:3.88493" />
</svg>
