<?xml version="1.0" encoding="utf-8"?>
<!-- Generator: Adobe Illustrator 27.9.0, SVG Export Plug-In . SVG Version: 6.00 Build 0)  -->
<svg version="1.1" id="Layer_1" xmlns="http://www.w3.org/2000/svg" xmlns:xlink="http://www.w3.org/1999/xlink" x="0px" y="0px"
	 viewBox="0 0 1138 676" style="enable-background:new 0 0 1138 676;" xml:space="preserve">
<style type="text/css">
	.st0{fill:#00566D;}
	.st1{fill:#FFFFFF;}
	.st2{fill:#00708E;}
	.st3{fill:#EC8000;}
	.st4{fill:#71420E;}
	.st5{fill:#5493A2;}
	.st6{fill:#96632D;}
	.st7{fill:#363634;}
</style>
<path class="st0" d="M473.2,160.3c36.9,1.8,82.1,5.5,108.3,34.5c0.4,0.4,0.7,0.8,1.1,1.2c26.5-29.5,67.6-33.6,105.3-35.6
	c1.4-0.1,2.7-0.1,4.1-0.1c-1.3,9.6-12.6,106.8-11.7,108.3c4.5-2,9.2-3.8,13.7-5.7c5.3-2.5,9.9-4.8,15-7.7c0.7-3.4,0.9-7.6,2.3-10.8
	c-0.2-1.1,0.7-6.7,0.9-8.1c5,1.2,15.7,3.6,19.9,5.6c0.5,13.8,0.5,23.2,11.4,34.1c4.2-2.1,8.6-3.9,11.8,1.4
	c0.8,6.4-11,10.5-15.9,13.1c-2.8,16.6-9.2,31.9-17.8,46.3c-5.5,9.1-16,13.8-25.4,17.9c-28,12.2-58.9,16-89,10.9
	c-0.3,0-0.6-0.1-0.9-0.2c-6.8,2.8-9.5,3.8-16.8,5c25.2,7.9,53.9,7,79.7,2.2c12.2-3,20.6-6.1,32-10.6c-24.4,23.1-55,38.4-88.1,44.1
	c-43.7,7.4-90.1-1.6-127-26.8c-30.1-20.6-53.5-52.2-59.7-88.7c-3.3-1.6-18.4-7.6-15.8-12.9c2.8-5.6,7-3.8,11.6-1.6
	c8.5-8,10.7-17.4,11.4-28.5c-1-6.8,4.1-7.4,9.5-8.6c3-0.7,6-1.4,9.1-2.2l1.2,0.6c0.9,2.9,1.1,3.4,1.2,6.5l-0.5,0.8
	c1.6,2.3,1.7,6.4,1.7,9.1c4.6,2.3,11.1,5.3,15.5,7.8l14.1,5.8C481.5,231.6,477.5,196,473.2,160.3z"/>
<path class="st1" d="M473.2,160.3c36.9,1.8,82.1,5.5,108.3,34.5c0.4,0.4,0.7,0.8,1.1,1.2c26.5-29.5,67.6-33.6,105.3-35.6
	c1.4-0.1,2.7-0.1,4.1-0.1c-1.3,9.6-12.6,106.8-11.7,108.3c-4.1,1.3-8.3,3.5-12.4,5.1c-3.9,1-7.4,2.7-11.1,4.3
	c-30.1,12.6-57.8,30.1-72.8,60c-18.1-35.8-50.6-52.4-87-65.9l-11.7-4.9C481.5,231.6,477.5,196,473.2,160.3z"/>
<path class="st2" d="M473.2,160.3c36.9,1.8,82.1,5.5,108.3,34.5c0.4,0.4,0.7,0.8,1.1,1.2c26.5-29.5,67.6-33.6,105.3-35.6
	c1.4-0.1,2.7-0.1,4.1-0.1c-1.3,9.6-12.6,106.8-11.7,108.3c-4.1,1.3-8.3,3.5-12.4,5.1c2.4-18.6,4.6-37.2,6.5-55.9
	c1.6-14.8,3.7-30.7,4.8-45.5c-7.7,0.4-15.3,1.1-22.9,2.1c-24.7,3.4-52.3,10.8-68.1,31.6l0,29.2c-3.8,2.5-7.6,5-11.3,7.6
	c0.4-11.5,0.1-25.4-0.1-37c-0.8-1-1.6-2.1-2.4-3c-21.1-23.9-58.7-28.8-88.6-30.7c3.6,33.3,7.3,66.6,11.2,99.9l-11.7-4.9
	C481.5,231.6,477.5,196,473.2,160.3z"/>
<path class="st3" d="M621.4,210.1c11.6-0.6,18.5,2.1,24.9,12.1c5.8,0.8,9.7,1.8,15.3,3.4c-2.4,1.2-5.3,2.6-7.6,3.9
	c-15,8.7-8.4,18.2-7.3,31.8c0.4,5.5-0.3,9.4-1.7,14.6c-25.1,11.6-45.1,25.3-60.6,48.5c-8.7-11.7-12-16.6-23.4-25.8
	c13.4-0.1,24.1-0.7,36.3-6.3c14.9-8.3,20.5-17.1,16.8-34.1c-3.5,30.3-31.1,34.2-56.2,33.9c-8.8-0.1-13.3-6.1-21.2-9.6
	c12.2-8.2,24-19.1,36.1-27.8c2.9-2,19.1-13.7,20-15.3C601.5,225.5,601.9,213.7,621.4,210.1z"/>
<path class="st1" d="M628.4,221.9c1.5-0.7,3.2-0.5,4.5,0.5c1.3,1,1.9,2.6,1.6,4.2c-0.3,1.6-1.4,2.9-3,3.4c-2.2,0.7-4.6-0.4-5.5-2.6
	C625.2,225.3,626.2,222.9,628.4,221.9z"/>
<path class="st1" d="M433.3,247.6c-1-6.8,4.1-7.4,9.5-8.6c3-0.7,6-1.4,9.1-2.2l1.2,0.6c0.9,2.9,1.1,3.4,1.2,6.5l-0.5,0.8
	c1.6,2.3,1.7,6.4,1.7,9.1c4.6,2.3,11.1,5.3,15.5,7.8l14.1,5.8l11.7,4.9c36.4,13.4,68.9,30.1,87,65.9l-3.8,11.4l7.3,0
	c29.2-65.7,89.8-60.4,137-94.7c0.7,3.3,1.2,5.8,2.2,9.1c1,4.3,2.5,6.7,4.7,10.5c1.3,2.1,3.1,3.9,4.8,5.7
	c-31.6,15-62.7,32.2-94.2,47.6c-11.4,5.6-23.6,11.8-34.7,18l-2.2,6.6c-10.3,9.7-34.3,10.6-44.3-0.2c-1.2-1.3-2.4-4.9-3-6.8
	c-13.4-7.8-32.1-16.6-46.2-23.7l-82.3-41.7c2.4-2.2,3-2.7,4.7-5.4c2.2-4,3.4-6.3,5-10.5c0.7-3.4,1.3-6.7,1.9-10.1
	C437.6,251.5,436.3,250.5,433.3,247.6z"/>
<path class="st4" d="M433.3,247.6c-1-6.8,4.1-7.4,9.5-8.6c3-0.7,6-1.4,9.1-2.2l1.2,0.6c0.9,2.9,1.1,3.4,1.2,6.5l-0.5,0.8
	c1.6,2.3,1.7,6.4,1.7,9.1c4.6,2.3,11.1,5.3,15.5,7.8l14.1,5.8l11.7,4.9c36.4,13.4,68.9,30.1,87,65.9l-3.8,11.4
	c-2.6-5.6-4.8-11.3-8-16.5c-29.7-47.4-92.2-50.6-131.2-79.1C437.6,251.5,436.3,250.5,433.3,247.6z"/>
<path class="st1" d="M453.9,244.6c1.6,2.3,1.7,6.4,1.7,9.1c-4.4-2.4-6.4-3.9-10.3-7L453.9,244.6z"/>
<path class="st2" d="M439,263.9c10.5,5,21.6,10.8,32.1,16.1c27,13.6,63.4,30.5,84.1,52.6c-0.2,1.1,0,0.8-0.6,1.6
	c-37.4-25.8-79.7-40.6-120.6-59.8C436.2,270.4,437.3,268.1,439,263.9z"/>
<path class="st2" d="M726.6,263.8c1,4.3,2.5,6.7,4.7,10.5c-11.6,5.9-25.4,11.8-37.4,17.1c-32,13.9-59.5,26.4-88.2,46.6
	c21.3-25,55.7-41.2,85-55.8C702.6,276.1,714.6,270,726.6,263.8z"/>
<path class="st5" d="M555.1,332.6c1.9,2,3.1,3.5,4.7,5.7c-0.8-0.6-4.9-3.6-5.3-4.1C555.2,333.4,554.9,333.7,555.1,332.6z"/>
<path class="st2" d="M426.1,290.5c2.7,1.4,12,5.9,13,7.9c1.6-0.3,2-0.1,3.6,0.7c17.7,8.4,35.1,17.7,52.6,26.5l33.9,17.2
	c5.9,3,13.9,6.6,19.4,10c8.7,17.1,23.5,18.2,40.7,17.6c25.2,7.9,53.9,7,79.7,2.2c12.2-3,20.6-6.1,32-10.6
	c-24.4,23.1-55,38.4-88.1,44.1c-43.7,7.4-90.1-1.6-127-26.8C455.8,358.7,432.4,327.1,426.1,290.5z"/>
<path class="st4" d="M426.1,290.5c2.7,1.4,12,5.9,13,7.9c18.2,56.7,66.4,91.5,124.9,97.9c7,2.1,32.1,0.4,39.8-0.7
	c18.1-1.3,51.3-11.6,65.1-23c12.2-3,20.6-6.1,32-10.6c-24.4,23.1-55,38.4-88.1,44.1c-43.7,7.4-90.1-1.6-127-26.8
	C455.8,358.7,432.4,327.1,426.1,290.5z"/>
<path class="st0" d="M501,349.9c18.8,16.3,48.7,31.7,72.7,39.2c9.5,2.9,20.3,4.8,30.2,6.6c-7.7,1.1-32.7,2.8-39.8,0.7
	c1-0.4,0.6-0.1,1.2-0.9c-4.4-2.3-11.8-4.6-16.7-6.9C528.5,379.1,512.5,369,501,349.9z"/>
<path class="st4" d="M726.5,297.2c4.3-2.2,8.6-4.4,12.8-6.7c-2.8,16.6-9.2,31.9-17.8,46.3c-5.5,9.1-16,13.8-25.4,17.9
	c-28,12.2-58.9,16-89,10.9c-0.3,0-0.6-0.1-0.9-0.2c4.6-3.3,7.1-5.1,9.3-10.2c2-4.1,8-5.9,12.3-7.6c2.9-1.9,9-4.9,12.4-6.6
	c8.3-4.3,16.5-8.5,24.9-12.7L726.5,297.2z"/>
<path class="st6" d="M627.6,347.6c2.9-1.9,9-4.9,12.4-6.6c8.3-4.3,16.5-8.5,24.9-12.7l61.6-31.2c-1.8,6.1-5.5,18.1-8.8,23.5
	c-2.5,0.3-11.2,6.8-14.1,8.4C680.2,342.3,654.7,349.1,627.6,347.6z"/>
<path class="st1" d="M627.6,347.6c27,1.5,52.5-5.3,76-18.6c2.9-1.6,11.6-8.1,14.1-8.4c-1.9,3.7-6,11.2-8.7,14.1
	c-6.4,6.8-22.4,12.4-31.1,15.2c-18.1,5.8-43.7,8.7-62.5,5.4C617.3,351.2,623.3,349.4,627.6,347.6z"/>
<path class="st1" d="M708.9,255.3c0.7-3.4,0.9-7.6,2.3-10.8l9.6,2.4C716.3,250.7,714.2,252.4,708.9,255.3z"/>
<path class="st7" d="M421.2,456.1c15.9-3.6,31.6,6.5,35.1,22.3c3.5,15.9-6.6,31.6-22.5,35c-15.8,3.4-31.4-6.6-34.8-22.4
	C395.5,475.3,405.5,459.7,421.2,456.1z"/>
<path class="st1" d="M423.9,470.5c19.8-2,21.7,21.8,7.3,28.4C413,501.5,409,477.8,423.9,470.5z"/>
<path class="st7" d="M702.4,456.7c23.6-1.7,33.8,9.7,33.8,32.7l-40.1,0c5.4,14.5,16.2,12.1,27.3,5.7c1.4,0.2,1.9,1.2,3.1,2.5l6,6.5
	c-25.3,24.5-67.5-2.1-48.9-35.2C687.5,461.8,694.9,458.4,702.4,456.7z"/>
<path class="st1" d="M705.8,468.9c8.7-0.4,11.5,2.9,14.5,10.5l-9.1,0.1l-15.5,0C697.8,473.3,699.6,470.8,705.8,468.9z"/>
<path class="st7" d="M544.5,456.7c23.3-1.9,33.3,10.3,33.1,32.7l-39.9,0c0.7,1.8,1.3,3.3,2.5,4.9c2.4,3.1,5.9,5,9.7,5.5
	c9.5,1.1,13.6-4.9,15.7-4.9l1.9,1.9c2.1,2.4,4.6,4.8,6.9,7.1c-10.9,10.4-27.2,12.8-40.2,4.7c-6.4-3.9-10.8-10.2-12.4-17.5
	C518,474.1,527.3,460.2,544.5,456.7z"/>
<path class="st1" d="M548,468.9c8.5-0.4,10.9,3.6,13.8,10.5l-9.6,0.1c-4,0-12.3,1-14.7-1.2C537.8,474.1,544.1,469.8,548,468.9z"/>
<path class="st7" d="M644,456.7c24.2-1.6,27.6,13,26.8,33.5c-0.3,7.1,0,15.1-0.1,22.3l-16.8,0c0-4.5,0.2-9.1,0.1-13.6
	c-0.4-11.7,3.8-32.3-15.2-27.3c-9.9,6-6.6,29.8-6.5,40.9c-5.5-0.1-11.3-0.1-16.9-0.1l0-55.2c5.2,0.1,10.3-0.5,15.4,0.2
	c1.5,1.8-0.1,3,1.3,5C636.8,459.4,638.6,457.9,644,456.7z"/>
<path class="st7" d="M362.7,456.7c19.2-1.7,27.2,7.6,27,26.6c-0.1,9.5-0.1,19.4-0.1,29l-16.7,0.1c0.1-7.3-0.1-15,0.2-22.3
	c0.4-11.1-0.9-23.6-16-18.1c-8.6,5.9-5.7,30.1-5.6,40.4c-5.6-0.1-11.2,0-16.8,0l0.1-55.2c5.2,0.1,9.8-0.4,15,0.1
	c1.1,1.2,0.7,2.7,1,4.9C351.8,462.2,357.7,458.1,362.7,456.7z"/>
<path class="st7" d="M760.6,456.8c9.7-1.3,18,0.4,26.7,4.6c-1.7,4-3.4,7.9-5.2,11.8c-4.5-2.1-23.3-8.9-24,0.3
	c3.7,8.9,29.4,2.2,30.9,18.9c1.3,14.6-8.2,19.1-20.8,20.8c-11.7,0.3-17.8-0.7-27.9-6.5c1.8-3.9,3.5-7.9,5.2-11.8
	c5.2,2.9,26.2,11.1,27.4,0.8c-2.5-5.5-18.1-4.7-25-9.8c-9.2-6.9-8.2-16.6-0.2-24.3C750.7,458.8,756.4,457.5,760.6,456.8z"/>
<path class="st7" d="M503.4,457.2l16.9,0.1c-2.1,4.5-3.8,8.8-5.6,13.4c-5.7,13.2-11.7,28.4-16.7,41.8l-17.9,0
	c-2.1-6.3-5.7-14-8.3-20.3c-4.8-11.6-9.5-23.3-14.1-35l17.5,0c4.8,11.7,9.5,24.3,14,36.1C493.7,481.3,498.8,469.3,503.4,457.2z"/>
<path class="st7" d="M800.3,444.5l16.5,0l0,13.9l12.9,0.1l0,12.8l-12.9-0.1c0.1,9.9-4.7,35.6,12.7,26.4l3.6,10.5
	c0.2,0.6,0.2,0.9,0.2,1.6c-2.2,2.4-5.9,2.8-9,3.2c-28.7,3.6-24.2-22.9-24-41.8l-8.2-0.1l-0.1-12.8l8.2,0.1L800.3,444.5z"/>
<path class="st7" d="M586.4,437.4c5.7,0.1,11.3,0.1,17,0.1l0,74.9l-17-0.1L586.4,437.4z"/>
<path class="st6" d="M696.3,182l25.1,0.8c-2.7,16.5-5.7,37.5-9.3,53.5c-0.2,1.4-1.1,7-0.9,8.1c-1.4,3.2-1.6,7.4-2.3,10.8
	c-5.1,2.9-9.7,5.2-15,7.7c4.1-21,7.5-47.8,10.9-69.3c-3-0.3-7-0.3-10-0.3C695.2,189.9,695.8,185.5,696.3,182z"/>
<path class="st6" d="M443.7,182.8l25.6-0.7c0.4,3.6,0.8,7.8,1.3,11.3c-3.2,0.1-7.1,0.1-10.2,0.4c3.7,22.6,7.3,45.2,10.7,67.8
	c-4.4-2.5-10.9-5.5-15.5-7.8c0-2.7-0.2-6.9-1.7-9.1l0.5-0.8c-0.1-3-0.3-3.6-1.2-6.5l-1.2-0.6l1-0.7c-0.4-3.6-1.2-7.9-1.9-11.5
	C448.3,210.8,446.4,196.6,443.7,182.8z"/>
<circle class="st0" cx="569" cy="337.5" r="19.5"/>
</svg>
